<svg width="74" height="74" viewBox="0 0 74 74" fill="none" xmlns="http://www.w3.org/2000/svg">
<g clip-path="url(#clip0_36_521)">
<path d="M73.9896 57.0025C71.3136 57.683 69.6584 57.0324 68.1733 54.8024L57.6118 40.1902L56.0853 38.1671L43.7514 54.8506C42.3421 56.8576 40.8639 57.7312 38.2339 57.0209L54.0277 35.8198L39.3236 16.6695C41.8524 16.1775 43.5996 16.4281 45.1514 18.6926L56.106 33.4864L67.141 18.773C68.5549 16.766 70.0745 16.0028 72.6125 16.743L66.9111 24.302L59.1866 34.36C58.267 35.5095 58.3935 36.2957 59.2395 37.4061L73.9896 57.0025ZM0.441213 35.4658L1.73323 29.1115C5.25064 16.5361 19.6651 11.3106 29.6059 19.0811C35.4153 23.6514 36.8591 30.1161 36.5717 37.3578H3.82529C3.33331 50.393 12.7154 58.26 24.6769 54.246C28.8725 52.8368 31.3439 49.5515 32.5807 45.441C33.2083 43.3811 34.2475 43.0593 36.1832 43.6478C35.1946 48.7883 32.9646 53.0827 28.2518 55.7702C21.21 59.7934 11.159 58.4922 5.87136 52.9011C2.72178 49.6573 1.42057 45.5467 0.836634 41.1511C0.744676 40.4247 0.560759 39.7327 0.422821 39.0361C0.435082 37.8468 0.441213 36.6574 0.441213 35.4681V35.4658ZM3.88506 34.5922H33.4773C33.2842 25.1664 27.4149 18.4719 19.3939 18.4144C10.5888 18.3454 4.26669 24.8814 3.88506 34.5922Z" fill="black"/>
</g>
<defs>
<clipPath id="clip0_36_521">
<rect width="73.5668" height="73.5668" fill="white" transform="translate(0.422821)"/>
</clipPath>
</defs>
</svg>
