<svg width="74" height="75" viewBox="0 0 74 75" fill="none" xmlns="http://www.w3.org/2000/svg">
<path d="M65.1106 34.8093L40.1285 9.82719C39.3622 9.06087 38.2894 8.60107 37.2165 8.60107C36.1437 8.60107 35.0708 9.06087 34.3045 9.82719L28.9402 15.1914L35.2241 21.4753C35.8371 21.1687 36.4502 21.0155 37.2165 21.0155C39.822 21.0155 41.8144 23.0079 41.8144 25.6134C41.8144 26.3797 41.6612 26.9928 41.3546 27.6058L47.4852 33.7364C48.0983 33.4299 48.7113 33.2766 49.4776 33.2766C52.0831 33.2766 54.0756 35.269 54.0756 37.8745C54.0756 40.48 52.0831 42.4725 49.4776 42.4725C46.8722 42.4725 44.8797 40.48 44.8797 37.8745C44.8797 37.1082 45.033 36.4952 45.3395 35.8821L39.2089 29.7515C39.0557 29.7515 38.9024 29.9048 38.7492 29.9048V45.8443C40.5883 46.4573 41.8144 48.1432 41.8144 50.1357C41.8144 52.7412 39.822 54.7336 37.2165 54.7336C34.611 54.7336 32.6186 52.7412 32.6186 50.1357C32.6186 48.1432 33.8447 46.4573 35.6839 45.8443V29.7515C33.8447 29.1385 32.6186 27.4526 32.6186 25.4601C32.6186 24.6938 32.7718 24.0808 33.0784 23.4677L26.7945 17.1839L9.32243 34.8093C8.55611 35.5756 8.09631 36.6484 8.09631 37.7213C8.09631 38.7941 8.55611 39.867 9.32243 40.6333L34.3045 65.6154C35.0708 66.3817 36.1437 66.8415 37.2165 66.8415C38.2894 66.8415 39.3622 66.3817 40.1285 65.6154L65.1106 40.6333C65.8769 39.867 66.3367 38.7941 66.3367 37.7213C66.3367 36.6484 65.8769 35.5756 65.1106 34.8093Z" fill="#F4511E"/>
</svg>
