<svg width="121" height="75" viewBox="0 0 121 75" fill="none" xmlns="http://www.w3.org/2000/svg">
<g clip-path="url(#clip0_36_545)">
<mask id="mask0_36_545" style="mask-type:luminance" maskUnits="userSpaceOnUse" x="0" y="0" width="121" height="74">
<path d="M0.164795 0.937988H120.547V73.1672H0.164795V0.937988Z" fill="white"/>
</mask>
<g mask="url(#mask0_36_545)">
<path fill-rule="evenodd" clip-rule="evenodd" d="M60.3558 0.937988C44.3049 0.937988 34.273 8.96346 30.2603 25.0144C36.2794 16.9889 43.3017 13.9794 51.3272 15.9857C55.9061 17.1294 59.1788 20.4533 62.8014 24.1294C68.7023 30.1195 75.5329 37.0526 90.4513 37.0526C106.502 37.0526 116.534 29.0271 120.547 12.9762C114.528 21.0017 107.505 24.0112 99.48 22.0048C94.901 20.8612 91.6284 17.5373 88.0058 13.8612C82.1049 7.8711 75.2743 0.937988 60.3558 0.937988ZM30.2603 37.0526C14.2094 37.0526 4.17753 45.0781 0.164795 61.129C6.1839 53.1035 13.2062 50.094 21.2317 52.1004C25.8106 53.2462 29.0832 56.5679 32.7058 60.244C38.6068 66.2341 45.4374 73.1672 60.3558 73.1672C76.4068 73.1672 86.4386 65.1417 90.4513 49.0908C84.4322 57.1163 77.41 60.1258 69.3845 58.1195C64.8055 56.9758 61.5329 53.6519 57.9103 49.9758C52.0093 43.9857 45.1788 37.0526 30.2603 37.0526Z" fill="#38BDF8"/>
</g>
</g>
<defs>
<clipPath id="clip0_36_545">
<rect width="120.382" height="73.5668" fill="white" transform="translate(0.164795 0.937988)"/>
</clipPath>
</defs>
</svg>
