<svg width="74" height="75" viewBox="0 0 74 75" fill="none" xmlns="http://www.w3.org/2000/svg">
<path d="M61.2616 40.7191C58.9044 40.7314 56.8629 41.2969 55.1525 42.1414C54.5272 40.8923 53.8927 39.7934 53.7869 38.9765C53.6628 38.0232 53.5187 37.4531 53.6689 36.3174C53.8191 35.1817 54.4766 33.5724 54.4674 33.4513C54.4582 33.3303 54.3203 32.7524 52.9608 32.7417C51.6014 32.7325 50.4381 33.0038 50.3017 33.3624C50.1653 33.7211 49.9032 34.5288 49.7407 35.3717C49.5032 36.604 47.0264 41.0011 45.621 43.3001C45.1612 42.402 44.7704 41.6111 44.6891 40.9858C44.565 40.0325 44.4209 39.4624 44.5711 38.3267C44.7213 37.191 45.3788 35.5817 45.3696 35.4606C45.3604 35.3395 45.2225 34.7617 43.8631 34.751C42.5036 34.7418 41.3403 35.0131 41.2039 35.3717C41.0675 35.7304 40.9204 36.5687 40.643 37.381C40.364 38.1918 37.0734 45.5255 36.2106 47.4275C35.7707 48.3961 35.3891 49.1747 35.1193 49.705L35.1178 49.7019C35.1178 49.7019 35.1009 49.7372 35.0734 49.797C34.8419 50.2491 34.7055 50.4989 34.7055 50.4989C34.7055 50.4989 34.707 50.502 34.7101 50.5081C34.5262 50.8407 34.33 51.1487 34.2335 51.1487C34.166 51.1487 34.0296 50.2644 34.2626 49.0506C34.753 46.5064 35.9286 42.5399 35.9178 42.402C35.9117 42.3315 36.137 41.6402 35.15 41.2785C34.1905 40.9276 33.8488 41.513 33.7614 41.5146C33.6771 41.5161 33.6143 41.7215 33.6143 41.7215C33.6143 41.7215 34.6825 37.2599 31.5759 37.2599C29.6325 37.2599 26.9412 39.3857 25.6154 41.3123C24.7786 41.769 22.9869 42.7468 21.088 43.7905C20.3585 44.1921 19.6136 44.6013 18.907 44.9906C18.8595 44.9369 18.8105 44.8848 18.7614 44.8312C14.9927 40.8111 8.02835 37.968 8.32262 32.5624C8.42991 30.5976 9.11346 25.4234 21.7072 19.1487C32.0234 14.0082 40.2828 15.4229 41.7097 18.5571C43.7481 23.037 37.2957 31.3608 26.5825 32.5624C22.5011 33.0207 20.3508 31.4374 19.8159 30.8489C19.2534 30.2282 19.1691 30.2006 18.9592 30.3171C18.6174 30.5071 18.8335 31.0543 18.9592 31.3807C19.2795 32.213 20.5914 33.6889 22.8291 34.4246C24.7985 35.0713 29.5911 35.4254 35.386 33.1831C41.8783 30.6726 46.9467 23.6869 45.457 17.849C43.9427 11.9116 34.0971 9.95899 24.7786 13.2695C19.2258 15.2405 13.2225 18.3334 8.90502 22.3703C3.77221 27.1706 2.95378 31.3501 3.29096 33.0958C4.48948 39.2999 13.0401 43.3399 16.464 46.3332C16.2954 46.4267 16.136 46.514 15.992 46.5937C14.2754 47.4428 7.75708 50.8545 6.12635 54.4577C4.27645 58.5453 6.42061 61.4787 7.83984 61.8742C12.237 63.0972 16.7491 60.8964 19.1753 57.2793C21.5999 53.6638 21.3041 48.954 20.1914 46.8052C20.1776 46.7792 20.1623 46.7531 20.1485 46.7255C20.5914 46.4635 21.0435 46.1968 21.4911 45.9332C22.3647 45.4197 23.223 44.9415 23.9663 44.5369C23.5494 45.6772 23.2444 47.0459 23.0866 49.0214C22.8996 51.3419 23.8513 54.3412 25.0959 55.5214C25.6445 56.0409 26.3036 56.0532 26.7205 56.0532C28.1688 56.0532 28.8294 54.8485 29.5574 53.4232C30.4494 51.676 31.2417 49.6406 31.2417 49.6406C31.2417 49.6406 30.2486 55.1367 32.9552 55.1367C33.9423 55.1367 34.9339 53.8569 35.3768 53.2056C35.3783 53.2132 35.3783 53.2163 35.3783 53.2163C35.3783 53.2163 35.4044 53.1734 35.455 53.0891C35.5577 52.9327 35.6159 52.8331 35.6159 52.8331C35.6159 52.8331 35.6174 52.8224 35.6205 52.804C36.0175 52.1158 36.8972 50.5464 38.2153 47.9578C39.9196 44.6136 41.5534 40.4233 41.5534 40.4233C41.5534 40.4233 41.7051 41.4471 42.2032 43.1422C42.4959 44.1384 43.1182 45.2404 43.6102 46.2979C43.2147 46.8466 42.9726 47.1608 42.9726 47.1608C42.9726 47.1608 42.9741 47.1669 42.9787 47.1777C42.663 47.5976 42.309 48.0497 41.9381 48.4911C40.5924 50.0928 38.9908 51.9227 38.7762 52.45C38.5233 53.0722 38.5831 53.5289 39.072 53.8983C39.4291 54.1665 40.0636 54.2094 40.7273 54.165C41.9365 54.0838 42.7856 53.7834 43.2055 53.601C43.86 53.3695 44.6217 53.0063 45.3359 52.4806C46.6555 51.5104 47.451 50.1234 47.3743 48.2842C47.3314 47.2712 47.0096 46.2673 46.6003 45.3201C46.7199 45.1485 46.8394 44.9737 46.9605 44.799C49.0403 41.7582 50.6542 38.4171 50.6542 38.4171C50.6542 38.4171 50.8059 39.4409 51.304 41.136C51.5554 41.9927 52.0535 42.9292 52.501 43.8457C50.5454 45.4351 49.333 47.2819 48.9116 48.4927C48.133 50.7334 48.743 51.748 49.8863 51.9794C50.4044 52.0837 51.137 51.8461 51.6872 51.6131C52.3723 51.3863 53.1953 51.0077 53.9647 50.4422C55.2843 49.472 56.5533 48.1141 56.4767 46.2765C56.4414 45.4397 56.2146 44.609 55.9066 43.812C57.5649 43.1208 59.7106 42.7376 62.4448 43.0564C68.3102 43.7415 69.4597 47.403 69.2405 48.9356C69.0198 50.4683 67.7907 51.3112 67.3784 51.5656C66.9676 51.82 66.8419 51.9089 66.8757 52.0975C66.9262 52.3718 67.1163 52.3626 67.4673 52.3028C67.9501 52.2216 70.5463 51.0568 70.6582 48.2275C70.7977 44.632 67.3569 40.6869 61.2616 40.7191ZM16.0533 55.9597C14.1099 58.0794 11.3971 58.8794 10.2323 58.205C8.97553 57.477 9.47364 54.3566 11.8569 52.1066C13.3098 50.7365 15.1858 49.4736 16.4303 48.6965C16.7138 48.5264 17.1292 48.2766 17.635 47.9731C17.7192 47.9256 17.7668 47.8995 17.7668 47.8995L17.7652 47.8965C17.8633 47.8382 17.9629 47.7785 18.0656 47.7156C18.9346 50.9173 18.0932 53.7358 16.0533 55.9597ZM30.2072 46.3393C29.5313 47.9884 28.1152 52.2093 27.2523 51.9825C26.512 51.7879 26.0614 48.58 27.1051 45.4228C27.6293 43.8334 28.7512 41.9345 29.4102 41.1973C30.4708 40.011 31.6387 39.6233 31.9222 40.1045C32.2824 40.7176 30.6318 45.3048 30.2072 46.3393ZM41.8997 51.9181C41.6131 52.0683 41.3495 52.1618 41.2284 52.0898C41.138 52.0361 41.3465 51.8384 41.3465 51.8384C41.3465 51.8384 42.8086 50.2644 43.3849 49.5487C43.7205 49.1318 44.1083 48.6367 44.5313 48.085C44.5343 48.1402 44.5359 48.1953 44.5359 48.249C44.5328 50.1341 42.712 51.4062 41.8997 51.9181ZM50.9071 49.8644C50.6925 49.7127 50.7293 49.2207 51.4328 47.6865C51.7086 47.0842 52.3401 46.0711 53.4344 45.1025C53.5616 45.501 53.6382 45.8826 53.6367 46.2382C53.6229 48.6107 51.9309 49.4966 50.9071 49.8644Z" fill="#F06292"/>
</svg>
