<svg width="50" height="75" viewBox="0 0 50 75" fill="none" xmlns="http://www.w3.org/2000/svg">
<g clip-path="url(#clip0_36_553)">
<path d="M25.2684 37.7221C25.2684 34.4702 26.5602 31.3516 28.8596 29.0521C31.159 26.7527 34.2777 25.4609 37.5296 25.4609C40.7814 25.4609 43.9001 26.7527 46.1995 29.0521C48.4989 31.3516 49.7907 34.4702 49.7907 37.7221C49.7907 40.9739 48.4989 44.0926 46.1995 46.392C43.9001 48.6914 40.7814 49.9832 37.5296 49.9832C34.2777 49.9832 31.159 48.6914 28.8596 46.392C26.5602 44.0926 25.2684 40.9739 25.2684 37.7221Z" fill="#1ABCFE"/>
<path d="M0.746155 62.2436C0.746155 58.9917 2.03795 55.873 4.33736 53.5736C6.63677 51.2742 9.75543 49.9824 13.0073 49.9824H25.2684V62.2436C25.2684 65.4954 23.9766 68.6141 21.6772 70.9135C19.3778 73.2129 16.2591 74.5047 13.0073 74.5047C9.75543 74.5047 6.63677 73.2129 4.33736 70.9135C2.03795 68.6141 0.746155 65.4954 0.746155 62.2436Z" fill="#0ACF83"/>
<path d="M25.2684 0.938477V25.4607H37.5296C40.7814 25.4607 43.9001 24.169 46.1995 21.8695C48.4989 19.5701 49.7907 16.4515 49.7907 13.1996C49.7907 9.94776 48.4989 6.82909 46.1995 4.52968C43.9001 2.23027 40.7814 0.938477 37.5296 0.938477L25.2684 0.938477Z" fill="#FF7262"/>
<path d="M0.746155 13.1991C0.746155 16.451 2.03795 19.5696 4.33736 21.8691C6.63677 24.1685 9.75543 25.4603 13.0073 25.4603H25.2684V0.937988H13.0073C9.75543 0.937988 6.63677 2.22978 4.33736 4.52919C2.03795 6.8286 0.746155 9.94727 0.746155 13.1991Z" fill="#F24E1E"/>
<path d="M0.746155 37.7221C0.746155 40.9739 2.03795 44.0926 4.33736 46.392C6.63677 48.6914 9.75543 49.9832 13.0073 49.9832H25.2684V25.4609H13.0073C9.75543 25.4609 6.63677 26.7527 4.33736 29.0521C2.03795 31.3516 0.746155 34.4702 0.746155 37.7221Z" fill="#A259FF"/>
</g>
<defs>
<clipPath id="clip0_36_553">
<rect width="49.0445" height="73.5668" fill="white" transform="translate(0.746155 0.937988)"/>
</clipPath>
</defs>
</svg>
