<svg width="75" height="75" viewBox="0 0 75 75" fill="none" xmlns="http://www.w3.org/2000/svg">
<path fill-rule="evenodd" clip-rule="evenodd" d="M13.8744 64.854L11.8789 11.7158C11.816 9.96089 13.1648 8.47576 14.9166 8.36847L50.3329 6.15381L53.038 7.06879L56.5554 5.76452L60.105 5.54228C61.8874 5.42887 63.4247 6.78219 63.5396 8.56465C63.5442 8.63362 63.5458 8.70412 63.5458 8.77463V66.6732C63.5442 68.4618 62.0928 69.9102 60.3042 69.9086C60.2567 69.9086 60.2092 69.9071 60.1632 69.9056L16.9642 67.9653C15.2813 67.8902 13.9387 66.5384 13.8744 64.854Z" fill="#FF4081"/>
<path fill-rule="evenodd" clip-rule="evenodd" d="M56.5524 5.76465L50.3344 6.15087L50.0325 13.4478C50.0218 13.7145 50.2287 13.9382 50.4954 13.9505C50.6073 13.9551 50.7161 13.9214 50.805 13.8539L53.6373 11.7036L56.0313 13.5903C56.2397 13.7558 56.5447 13.7206 56.7087 13.5122C56.7792 13.4217 56.816 13.3098 56.8129 13.1949L56.5554 5.76618L56.5524 5.76465ZM51.7123 30.1934C50.5766 31.0778 42.0919 31.6801 42.0919 30.4218C42.2727 25.617 40.1224 25.407 38.9255 25.407C37.7928 25.407 35.8801 25.7488 35.8801 28.3236C35.8801 30.946 38.6741 32.4265 41.954 34.1645C46.6117 36.6336 52.2533 39.6238 52.2533 47.1414C52.2533 54.3509 46.3956 58.3297 38.9285 58.3297C31.2209 58.3297 24.4834 55.2107 25.2436 44.3995C25.5424 43.132 35.3437 43.4339 35.3437 44.3995C35.2211 48.861 36.2387 50.1729 38.8074 50.1729C40.78 50.1729 41.675 49.0848 41.675 47.2563C41.675 44.4853 38.7661 42.85 35.4157 40.971C30.8806 38.4252 25.544 35.4289 25.544 28.5504C25.544 21.6888 30.263 17.1123 38.6879 17.1123C47.1128 17.1123 51.7123 21.6198 51.7123 30.1934Z" fill="white"/>
</svg>
