<svg width="77" height="74" viewBox="0 0 77 74" fill="none" xmlns="http://www.w3.org/2000/svg">
<path fill-rule="evenodd" clip-rule="evenodd" d="M44.894 1.22021C44.3746 1.22021 43.8924 1.33182 43.4473 1.48061C44.3932 2.113 44.9125 2.94999 45.1722 3.89858C45.1908 4.02877 45.2278 4.12178 45.2464 4.25197C45.265 4.36357 45.2834 4.47517 45.2834 4.58677C45.3577 6.22354 44.8569 6.42814 44.5045 7.39532C43.9666 8.64151 44.115 9.98069 44.7641 11.0595C44.8198 11.1897 44.894 11.3385 44.9867 11.4687C44.2819 6.76293 48.1953 6.05614 48.9186 4.58677C48.9743 3.30338 47.9171 2.4478 47.0825 1.8526C46.285 1.36901 45.5616 1.22021 44.894 1.22021ZM50.7919 2.2804C50.7177 2.70819 50.7733 2.59659 50.7548 2.81979C50.7362 2.96859 50.7362 3.15459 50.7178 3.30338C50.6807 3.45218 50.6435 3.60098 50.5879 3.74978C50.5508 3.89858 50.4952 4.04737 50.4395 4.19617C50.3653 4.34497 50.3097 4.47517 50.2355 4.62396C50.1799 4.69839 50.1428 4.77276 50.0872 4.84716C50.0501 4.90296 50.0129 4.95876 49.9759 5.01456C49.8831 5.14476 49.7904 5.27496 49.6977 5.38655C49.5864 5.49815 49.4937 5.62835 49.3638 5.72135V5.73998C49.2525 5.83297 49.1413 5.94457 49.0114 6.03757C48.6219 6.33516 48.1768 6.55836 47.7688 6.83736C47.639 6.93035 47.5091 7.00476 47.3979 7.11636C47.268 7.20935 47.1567 7.30235 47.0455 7.41395C46.9156 7.52555 46.8229 7.63715 46.7116 7.76735C46.6189 7.87895 46.5076 8.00914 46.4334 8.13934C46.3407 8.26953 46.2479 8.39974 46.1737 8.52993C46.0995 8.67873 46.0439 8.80893 45.9697 8.95772C45.9141 9.10652 45.8584 9.23672 45.8214 9.38552C45.7657 9.55292 45.7286 9.70171 45.6915 9.85052C45.673 9.92494 45.673 10.0179 45.6545 10.0923C45.6359 10.1667 45.6359 10.2411 45.6174 10.3155C45.6174 10.4643 45.5988 10.6317 45.5988 10.7805C45.5988 10.8921 45.5988 11.0037 45.6174 11.1153C45.6174 11.2641 45.636 11.4129 45.673 11.5803C45.6916 11.7291 45.7287 11.8779 45.7658 12.0267C45.8214 12.1755 45.8585 12.3243 45.9142 12.4731C45.9512 12.5661 46.0069 12.6591 46.044 12.7335L41.7782 11.0781C41.0549 10.8735 40.3501 10.6875 39.6267 10.5201C39.2373 10.4271 38.8478 10.3341 38.4583 10.2411C37.3455 10.0179 36.2141 9.85052 35.0828 9.73892C35.0457 9.73892 35.0271 9.72029 34.99 9.72029C33.8772 9.6087 32.7829 9.5529 31.6701 9.5529C30.8541 9.5529 30.038 9.59007 29.2405 9.64589C28.1091 9.72032 26.9777 9.86909 25.8464 10.0551C25.5682 10.0923 25.29 10.1481 25.0118 10.2039C24.4368 10.3155 23.8804 10.4457 23.3425 10.5759C23.0643 10.6503 22.7861 10.7247 22.5079 10.7991C22.2297 10.9107 21.9701 11.0409 21.7104 11.1525C21.5064 11.2455 21.3024 11.3385 21.0984 11.4315C21.0613 11.4501 21.0242 11.4501 21.0056 11.4686C20.8202 11.5616 20.6532 11.636 20.4863 11.729C20.4307 11.7477 20.3936 11.7662 20.3565 11.7848C20.1525 11.8778 19.9485 11.9894 19.7815 12.0824C19.6517 12.1382 19.5219 12.2126 19.4106 12.2684C19.355 12.3056 19.2808 12.3429 19.2437 12.3614C19.0768 12.4544 18.9098 12.5474 18.7615 12.6404C18.5945 12.7334 18.4462 12.8264 18.3163 12.9194C18.1865 13.0124 18.0567 13.0868 17.9454 13.1798C17.9268 13.1984 17.9083 13.1984 17.8897 13.217C17.7785 13.2914 17.6486 13.3844 17.5374 13.4774C17.5374 13.4774 17.5188 13.496 17.5003 13.5146C17.4076 13.589 17.3148 13.6633 17.2221 13.7377C17.185 13.7564 17.1479 13.7935 17.1108 13.8122C17.0181 13.8866 16.9253 13.9796 16.8326 14.054C16.814 14.0911 16.777 14.1098 16.7584 14.1284C16.6471 14.24 16.5358 14.333 16.4245 14.4446C16.406 14.4446 16.406 14.4632 16.3875 14.4818C16.2762 14.5748 16.1649 14.6864 16.0536 14.798C16.0351 14.8166 16.0351 14.8351 16.0166 14.8351C15.9238 14.9281 15.8311 15.0211 15.7384 15.1327C15.7013 15.1699 15.6456 15.2072 15.6085 15.2443C15.5158 15.3559 15.4045 15.4675 15.2932 15.5791C15.2747 15.6163 15.2376 15.6349 15.219 15.6721C15.0707 15.8209 14.9408 15.9697 14.7924 16.1185C14.7739 16.1371 14.7554 16.1557 14.7368 16.1743C14.44 16.4905 14.1248 16.8067 13.7909 17.0857C13.4571 17.3833 13.1047 17.6623 12.7523 17.9041C12.3813 18.1645 12.029 18.3877 11.6395 18.6109C11.2685 18.8155 10.879 19.0015 10.471 19.1689C10.0815 19.3363 9.67349 19.4851 9.26546 19.6153C8.48649 19.7827 7.68897 20.0988 7.00273 20.1546C6.85436 20.1546 6.68744 20.1918 6.53906 20.2104C6.37214 20.2476 6.22377 20.2849 6.07539 20.3221C5.92702 20.3778 5.77864 20.4336 5.63026 20.4894C5.48189 20.5452 5.33352 20.6196 5.18514 20.694C5.05531 20.787 4.90694 20.8614 4.7771 20.9544C4.64728 21.0474 4.51745 21.159 4.40617 21.2706C4.27634 21.3636 4.14651 21.4938 4.03523 21.6054C3.92394 21.7356 3.81266 21.8472 3.71993 21.9774C3.6272 22.1262 3.51592 22.2564 3.44172 22.4052C3.34899 22.5354 3.25626 22.6842 3.18207 22.833C3.10785 23.0004 3.0337 23.1492 2.97805 23.3166C2.92241 23.4654 2.86677 23.6328 2.81113 23.8002C2.77407 23.949 2.73691 24.0978 2.7184 24.2466C2.7184 24.2652 2.69982 24.2838 2.69982 24.3024C2.66276 24.4698 2.66276 24.693 2.64418 24.8046C2.62561 24.9348 2.60712 25.0464 2.60712 25.1766C2.60712 25.251 2.60712 25.344 2.62569 25.4184C2.64427 25.5486 2.66276 25.6602 2.69991 25.7718C2.73697 25.8834 2.77413 25.995 2.82973 26.1066V26.1252C2.88537 26.2368 2.95957 26.3484 3.03375 26.46C3.10797 26.5716 3.18213 26.6832 3.27486 26.7948C3.36759 26.8878 3.47888 26.9994 3.59016 27.0924C3.70144 27.204 3.81272 27.297 3.94255 27.39C4.38768 27.7806 4.49896 27.9108 5.07391 28.2084C5.16664 28.2642 5.25939 28.3014 5.37067 28.3572C5.38925 28.3572 5.40773 28.3758 5.42631 28.3758C5.42631 28.413 5.42631 28.4316 5.44489 28.4688C5.46346 28.6176 5.50053 28.7664 5.53762 28.9152C5.57469 29.0826 5.63036 29.2314 5.686 29.3616C5.74164 29.4732 5.77874 29.5848 5.83438 29.6964C5.85295 29.7335 5.87144 29.7708 5.89002 29.7894C5.96424 29.9382 6.03839 30.0684 6.11257 30.1986C6.20531 30.3288 6.29805 30.459 6.39078 30.5892C6.48351 30.7008 6.59479 30.831 6.70608 30.9426C6.81736 31.0542 6.92864 31.1472 7.05847 31.2587C7.05847 31.2587 7.07705 31.2774 7.09554 31.2774C7.20682 31.3704 7.3181 31.4634 7.42939 31.5378C7.55921 31.6308 7.68904 31.7052 7.83742 31.7796C7.96725 31.854 8.11562 31.9284 8.26399 31.9842C8.37528 32.04 8.5051 32.0772 8.63493 32.1144C8.65351 32.133 8.672 32.133 8.70915 32.1516C8.78337 32.1702 8.87606 32.1887 8.95026 32.2074C8.89461 33.2117 8.87604 34.1603 9.02447 34.4951C9.19139 34.8671 10.0075 33.7325 10.8235 32.4306C10.7122 33.7139 10.6381 35.2205 10.8235 35.6669C11.0275 36.1319 12.1404 34.6811 13.1048 33.0815C26.2546 30.0312 38.2544 39.1451 39.5156 52.0161C39.2745 50.0073 36.8078 48.8913 35.6764 49.1703C35.12 50.5467 34.1741 52.3137 32.6533 53.411C32.7831 52.1835 32.7275 50.9187 32.4678 49.6911C32.0598 51.4023 31.2622 53.0019 30.168 54.3782C28.406 54.5084 26.644 53.6528 25.7167 52.3695C25.6425 52.3137 25.624 52.2021 25.5683 52.1277C25.5127 51.9974 25.457 51.8673 25.4199 51.7371C25.3643 51.6069 25.3272 51.4767 25.3087 51.3465C25.2901 51.2163 25.2901 51.0861 25.2901 50.9373C25.2901 50.8443 25.2901 50.7513 25.2901 50.6583C25.3087 50.5281 25.3457 50.3979 25.3828 50.2677C25.4199 50.1375 25.457 50.0073 25.5126 49.8771C25.5869 49.7469 25.6425 49.6167 25.7352 49.4865C26.0505 48.5937 26.0505 47.8683 25.4756 47.4405C25.3643 47.3661 25.253 47.3103 25.1232 47.2545C25.0489 47.2359 24.9562 47.1987 24.8821 47.1801C24.8264 47.1615 24.7893 47.1429 24.7337 47.1243C24.6038 47.0871 24.474 47.0499 24.3442 47.0313C24.2144 46.9941 24.0845 46.9755 23.9547 46.9755C23.8249 46.9569 23.6765 46.9383 23.5467 46.9383C23.4539 46.9383 23.3612 46.957 23.2685 46.957C23.1201 46.957 22.9903 46.9756 22.8604 47.0128C22.7306 47.0314 22.6008 47.0499 22.471 47.0872C22.3411 47.1243 22.2113 47.1616 22.0815 47.2174C21.9516 47.2732 21.8404 47.329 21.7105 47.3848C21.5993 47.4406 21.488 47.515 21.3581 47.5708C17.0367 50.3979 19.6147 57.0194 22.5637 58.9352C21.4509 59.1398 20.3195 59.3816 20.0042 59.6234C19.9856 59.642 19.9672 59.6606 19.9672 59.6606C20.7647 60.1442 21.5993 60.5534 22.471 60.9067C23.658 61.2973 24.9192 61.6507 25.4756 61.7995V61.8182C27.015 62.1344 28.5729 62.246 30.1494 62.153C38.3657 61.5764 45.0982 55.3083 46.3223 47.05C46.3594 47.2174 46.3965 47.3662 46.4336 47.5336C46.4893 47.8684 46.5634 48.2218 46.6005 48.5752V48.5938C46.6376 48.7612 46.6562 48.9286 46.6747 49.0774V49.1518C46.6933 49.3192 46.7118 49.4866 46.7118 49.6354C46.7304 49.84 46.7489 50.0446 46.7489 50.2492V50.5468C46.7489 50.6398 46.7674 50.7514 46.7674 50.8444C46.7674 50.956 46.7489 51.0676 46.7489 51.1792V51.4396C46.7489 51.5698 46.7303 51.6814 46.7303 51.8116C46.7303 51.886 46.7303 51.9604 46.7117 52.0534C46.7117 52.1836 46.6931 52.3138 46.6931 52.4626C46.6745 52.5184 46.6745 52.5742 46.6745 52.63C46.656 52.7788 46.6375 52.909 46.6189 53.0578C46.6189 53.1136 46.6189 53.1694 46.6003 53.2252C46.5817 53.4112 46.5447 53.5786 46.5261 53.7646V53.7832V53.8018C46.4891 53.9692 46.4519 54.1552 46.4148 54.3226V54.3784C46.3778 54.5458 46.3406 54.7132 46.3036 54.8806C46.3036 54.8993 46.285 54.9364 46.285 54.955C46.2479 55.1224 46.2108 55.2898 46.1552 55.4572V55.513C46.0995 55.699 46.0439 55.8664 46.0068 56.0338C45.9882 56.0524 45.9882 56.071 45.9882 56.071C45.9326 56.257 45.8769 56.443 45.8213 56.629C45.7471 56.815 45.6915 56.9824 45.6173 57.1684C45.5431 57.3544 45.4874 57.5404 45.4133 57.7078C45.339 57.8938 45.2649 58.0612 45.1907 58.2472H45.1721C45.0979 58.4146 45.0237 58.6006 44.931 58.768C44.9124 58.8238 44.8939 58.861 44.8753 58.8981C44.8568 58.9168 44.8568 58.9353 44.8383 58.954C43.6327 61.3905 41.8522 63.5295 39.6266 65.2035C39.4782 65.2965 39.3298 65.4081 39.1815 65.5196C39.1444 65.5568 39.0887 65.5755 39.0516 65.6126C38.9218 65.7056 38.792 65.7986 38.6436 65.8916L38.6992 66.0033H38.7178C38.9775 65.9661 39.2371 65.9288 39.4968 65.8916H39.5154C39.9976 65.8172 40.4798 65.7242 40.962 65.6312C41.0918 65.6126 41.2402 65.5755 41.3701 65.5382C41.4628 65.5196 41.537 65.5011 41.6297 65.4824C41.7595 65.4638 41.8894 65.4266 42.0192 65.408C42.1305 65.3708 42.2418 65.3522 42.353 65.315C44.2077 64.8686 46.0068 64.2548 47.7316 63.5294C44.7827 67.5656 40.8322 70.8205 36.214 72.9595C38.3469 72.8107 40.4798 72.4573 42.5385 71.8621C50.0129 69.6488 56.3003 64.6082 60.0653 57.8193C59.3049 62.1159 57.5986 66.2078 55.0762 69.779C56.8753 68.5886 58.526 67.2122 60.0283 65.6498C64.1828 61.2975 66.9092 55.7734 67.8365 49.84C68.4671 52.7788 68.6526 55.8106 68.3744 58.8051C81.7652 40.0752 69.4872 20.6571 64.3497 15.5422C64.3311 15.505 64.3126 15.4864 64.3126 15.4492C64.294 15.4678 64.294 15.4678 64.294 15.4863C64.294 15.4677 64.294 15.4677 64.2755 15.4492C64.2755 15.6724 64.2569 15.8956 64.2384 16.1188C64.1827 16.5465 64.1271 16.9557 64.0529 17.3649C63.9602 17.7741 63.8489 18.1833 63.7376 18.5925C63.6078 18.9831 63.4594 19.3923 63.2925 19.7829C63.1256 20.1549 62.9401 20.5455 62.7361 20.9175C62.5321 21.2709 62.3095 21.6429 62.0684 21.9777C61.8273 22.3311 61.5676 22.6659 61.308 22.982C61.0298 23.3168 60.733 23.6144 60.4363 23.912C60.2508 24.0794 60.0839 24.2282 59.8984 24.377C59.75 24.5072 59.6202 24.6188 59.4718 24.749C59.138 25.0094 58.8041 25.2512 58.4332 25.4744C58.0808 25.6976 57.7099 25.9208 57.3389 26.1068C56.9495 26.2928 56.56 26.4602 56.1705 26.6276C55.781 26.7764 55.373 26.9066 54.9649 27.0182C54.5569 27.1298 54.1303 27.2228 53.7223 27.2972C53.2957 27.3716 52.8691 27.4088 52.4611 27.446C52.1643 27.4646 51.8676 27.4832 51.5708 27.4832C51.1443 27.4832 50.7177 27.446 50.3097 27.4087C49.8831 27.3716 49.4565 27.3157 49.0485 27.2227C48.6219 27.1483 48.2138 27.0367 47.8058 26.9065H47.7872C48.1953 26.8694 48.6033 26.8321 49.0113 26.7577C49.4379 26.6833 49.846 26.5903 50.254 26.4787C50.662 26.3671 51.0701 26.2369 51.4595 26.0881C51.8676 25.9393 52.2571 25.7534 52.628 25.5673C53.0175 25.3813 53.3699 25.1768 53.7408 24.9536C54.0932 24.7118 54.4456 24.47 54.7794 24.2096C55.1133 23.9492 55.4286 23.6702 55.7253 23.3726C56.0406 23.0936 56.3188 22.7774 56.597 22.4612C56.8752 22.1264 57.1349 21.7916 57.376 21.4568C57.4131 21.401 57.4502 21.3266 57.4873 21.2708C57.6728 20.9732 57.8582 20.6756 58.0251 20.378C58.2292 20.006 58.4146 19.634 58.5816 19.2434C58.7485 18.8529 58.8969 18.4623 59.0267 18.0531C59.1565 17.6625 59.2492 17.2533 59.342 16.8441C59.4162 16.4163 59.4903 16.0071 59.5274 15.5979C59.5645 15.1701 59.6017 14.7423 59.6017 14.3331C59.6017 14.0355 59.5831 13.7379 59.5646 13.4403C59.5275 13.0125 59.4719 12.6033 59.4162 12.1942C59.342 11.7664 59.2493 11.3572 59.138 10.948C59.0082 10.5574 58.8784 10.1482 58.73 9.7576C58.5816 9.367 58.3961 8.9764 58.2107 8.6044C58.0067 8.23241 57.8026 7.86042 57.5801 7.50703C57.339 7.15363 57.0979 6.81884 56.8382 6.48404C56.56 6.16784 56.2818 5.85165 55.985 5.53545C55.8367 5.38666 55.6697 5.21926 55.5028 5.07047C54.6682 4.41947 53.7965 3.80568 52.9248 3.24769C52.795 3.17326 52.6837 3.11749 52.5539 3.06169C51.9418 2.6711 51.3668 2.46639 50.7919 2.2804Z" fill="#E0234E"/>
</svg>
