<svg width="75" height="75" viewBox="0 0 75 75" fill="none" xmlns="http://www.w3.org/2000/svg">
<g clip-path="url(#clip0_36_561)">
<path d="M2.01552 47.4675C1.14818 44.3089 0.706604 41.0281 0.706604 37.7237C0.706604 22.6393 10.1803 8.84674 24.2823 3.40771L26.1313 8.19296C13.9926 12.8758 5.83965 24.7424 5.83965 37.7237C5.83965 40.5712 6.21811 43.3911 6.96323 46.1086L2.01552 47.4675Z" fill="#58D09E"/>
<path d="M24.0359 3.52492C27.0865 2.33217 30.3032 1.55008 33.5895 1.20467C48.5912 -0.372077 63.2985 7.60797 70.1818 21.0642L65.616 23.4033C59.69 11.8205 47.0362 4.95268 34.126 6.3096C31.2941 6.60725 28.5292 7.27839 25.9045 8.30349L24.0359 3.52492Z" fill="#58D09E"/>
<path d="M54.3268 64.4684C64.3439 58.0833 69.9233 46.7517 68.8866 34.9025C68.5193 30.7041 67.3541 26.6943 65.429 22.9923L69.9775 20.6195C72.2161 24.9233 73.5722 29.5774 73.9989 34.4553C75.2033 48.221 68.7243 61.3804 57.0857 68.798L54.3268 64.4684Z" fill="black"/>
<path d="M26.573 30.1344C29.5494 30.1344 31.974 31.7216 33.2199 34.4903L33.3185 34.7071L38.3173 33.0095L38.211 32.7536C36.2752 28.0391 31.8163 25.1089 26.573 25.1089C22.8867 25.1089 19.8905 26.2906 17.4147 28.7166C14.9546 31.127 13.7088 34.1596 13.7088 37.7317C13.7088 41.2724 14.9546 44.2893 17.4147 46.6997C19.8905 49.1258 22.8867 50.3074 26.573 50.3074C31.8163 50.3074 36.2752 47.3771 38.211 42.6667L38.3173 42.4107L33.3105 40.7092L33.2159 40.9337C32.1002 43.6552 29.6165 45.2818 26.573 45.2818C24.4992 45.2818 22.7488 44.5572 21.3609 43.1314C19.9575 41.6859 19.2479 39.8704 19.2479 37.7357C19.2479 35.5853 19.9417 33.8051 21.3609 32.2927C22.7448 30.8592 24.4992 30.1344 26.573 30.1344Z" fill="black"/>
<path d="M57.8835 25.5737L50.7596 43.6L43.5884 25.5737H37.722L47.7791 50.1774L40.6236 67.5303L45.7528 68.5504L63.4266 25.5737H57.8835Z" fill="black"/>
<path d="M41.5414 65.2934L40.2917 68.3182C40.0433 68.9169 39.4756 69.3224 38.8369 69.35C38.4152 69.3658 37.9894 69.3776 37.5596 69.3776C22.8504 69.3698 9.83648 58.9998 6.61157 44.7109L1.60468 45.8413C3.41425 53.8561 7.95595 61.1304 14.3939 66.3293C20.9069 71.587 29.1109 74.4897 37.5045 74.5055C37.5163 74.5055 37.5793 74.5055 37.5793 74.5055C38.0722 74.5055 38.5609 74.4937 39.0498 74.4741C41.6834 74.3637 44.037 72.7135 45.0423 70.2677L46.6744 66.3135L41.5414 65.2934Z" fill="black"/>
</g>
<defs>
<clipPath id="clip0_36_561">
<rect width="73.5668" height="73.5668" fill="white" transform="translate(0.706604 0.937988)"/>
</clipPath>
</defs>
</svg>
