<svg width="75" height="74" viewBox="0 0 75 74" fill="none" xmlns="http://www.w3.org/2000/svg">
<g clip-path="url(#clip0_36_506)">
<mask id="mask0_36_506" style="mask-type:alpha" maskUnits="userSpaceOnUse" x="0" y="0" width="75" height="74">
<path d="M37.5689 73.5668C57.8838 73.5668 74.3523 57.0983 74.3523 36.7834C74.3523 16.4685 57.8838 0 37.5689 0C17.254 0 0.785522 16.4685 0.785522 36.7834C0.785522 57.0983 17.254 73.5668 37.5689 73.5668Z" fill="black"/>
</mask>
<g mask="url(#mask0_36_506)">
<path d="M37.5689 72.3411C57.2067 72.3411 73.1262 56.4216 73.1262 36.7839C73.1262 17.1461 57.2067 1.22656 37.5689 1.22656C17.9312 1.22656 2.01162 17.1461 2.01162 36.7839C2.01162 56.4216 17.9312 72.3411 37.5689 72.3411Z" fill="black" stroke="white" stroke-width="6.89689"/>
<path d="M61.8901 64.3799L29.0441 22.0708H22.8555V51.4853H27.8064V28.3581L58.0037 67.3736C59.3663 66.4618 60.6644 65.4609 61.8901 64.3799Z" fill="url(#paint0_linear_36_506)"/>
<path d="M52.691 22.0708H47.7865V51.4975H52.691V22.0708Z" fill="url(#paint1_linear_36_506)"/>
</g>
</g>
<defs>
<linearGradient id="paint0_linear_36_506" x1="45.3343" y1="47.6148" x2="59.8433" y2="65.5978" gradientUnits="userSpaceOnUse">
<stop stop-color="white"/>
<stop offset="1" stop-color="white" stop-opacity="0"/>
</linearGradient>
<linearGradient id="paint1_linear_36_506" x1="50.2387" y1="22.0708" x2="50.1566" y2="43.6811" gradientUnits="userSpaceOnUse">
<stop stop-color="white"/>
<stop offset="1" stop-color="white" stop-opacity="0"/>
</linearGradient>
<clipPath id="clip0_36_506">
<rect width="73.5668" height="73.5668" fill="white" transform="translate(0.785522)"/>
</clipPath>
</defs>
</svg>
