<svg width="75" height="74" viewBox="0 0 75 74" fill="none" xmlns="http://www.w3.org/2000/svg">
<g clip-path="url(#clip0_36_529)">
<path d="M74.2696 35.9729C74.0696 23.6735 67.2118 11.6982 56.6021 5.39213C48.2431 0.186126 37.6839 -1.21509 28.1731 1.18732C13.8586 4.79095 2.44657 17.7548 0.995923 32.5302C-0.806464 46.4849 6.25135 60.9983 18.3129 68.155C30.1249 75.5622 46.1912 75.2622 57.7401 67.4653C68.1509 60.7086 74.6076 48.3839 74.2581 35.9833L74.2696 35.9729ZM39.5346 68.1067C22.8177 69.7585 6.65137 55.5946 6.19963 38.8271C4.9352 25.2138 13.9069 11.7499 26.7202 7.24509C44.6889 0.0378427 66.7612 13.3511 68.613 32.6222C71.5166 49.938 57.1021 67.5664 39.5346 68.1067ZM28.5341 34.9212L52.7076 15.1501L39.6449 34.9706C35.9413 34.9706 32.2377 34.9717 28.5341 34.9212ZM35.3309 38.5765L46.4418 38.6271L22.2682 58.4476L35.3309 38.5765Z" fill="#010101"/>
</g>
<defs>
<clipPath id="clip0_36_529">
<rect width="73.5668" height="73.5668" fill="white" transform="translate(0.716614)"/>
</clipPath>
</defs>
</svg>
