<svg width="66" height="74" viewBox="0 0 66 74" fill="none" xmlns="http://www.w3.org/2000/svg">
<g clip-path="url(#clip0_36_516)">
<path d="M33.1436 73.567C32.1574 73.567 31.2369 73.2989 30.3822 72.8297L21.6377 67.5342C20.3228 66.7969 20.9802 66.5287 21.3748 66.3947C23.15 65.7914 23.4787 65.6573 25.3196 64.5848C25.5169 64.4507 25.7798 64.5178 25.9771 64.6519L32.6834 68.7408C32.9464 68.8749 33.2751 68.8749 33.4724 68.7408L59.7058 53.2565C59.9688 53.1224 60.1002 52.8543 60.1002 52.5191V21.6174C60.1002 21.2823 59.9688 21.0142 59.7058 20.8801L33.4724 5.46283C33.2094 5.32877 32.8806 5.32877 32.6834 5.46283L6.44997 20.8801C6.18699 21.0142 6.05548 21.3493 6.05548 21.6174V52.5191C6.05548 52.7872 6.18699 53.1224 6.44997 53.2565L13.6165 57.4795C17.4956 59.4904 19.9283 57.1443 19.9283 54.7982V24.2987C19.9283 23.8965 20.2571 23.4944 20.7173 23.4944H24.0705C24.4649 23.4944 24.8594 23.8296 24.8594 24.2987V54.7982C24.8594 60.0937 22.0322 63.1772 17.1011 63.1772C15.5889 63.1772 14.4055 63.1772 11.0523 61.5013L4.1488 57.4795C2.43936 56.4739 1.38739 54.5971 1.38739 52.5862V21.6845C1.38739 19.6736 2.43936 17.7967 4.1488 16.7912L30.3822 1.30686C32.0259 0.368417 34.2613 0.368417 35.9051 1.30686L62.1384 16.7912C63.8479 17.7967 64.8998 19.6736 64.8998 21.6845V52.5862C64.8998 54.5971 63.8479 56.4739 62.1384 57.4795L35.9051 72.9638C35.1161 73.299 34.1299 73.567 33.1436 73.567Z" fill="#5FA04E"/>
<path d="M41.2963 52.3177C29.7904 52.3177 27.4235 46.9552 27.4235 42.397C27.4235 41.9949 27.7522 41.5927 28.2124 41.5927H31.6314C32.0258 41.5927 32.3546 41.8608 32.3546 42.263C32.8805 45.8156 34.3928 47.5585 41.3621 47.5585C46.8848 47.5585 49.2518 46.2849 49.2518 43.2684C49.2518 41.5257 48.5943 40.252 39.9813 39.3806C32.8148 38.6432 28.344 37.0345 28.344 31.2027C28.344 25.7731 32.8148 22.5557 40.3101 22.5557C48.7258 22.5557 52.8679 25.505 53.3939 31.9401C53.3939 32.1412 53.3282 32.3423 53.1967 32.5434C53.0652 32.6774 52.8679 32.8115 52.6707 32.8115H49.1861C48.8573 32.8115 48.5286 32.5434 48.4628 32.2082C47.6738 28.5215 45.6356 27.3149 40.2444 27.3149C34.1955 27.3149 33.4723 29.46 33.4723 31.0686C33.4723 33.0126 34.327 33.6159 42.4798 34.6884C50.5667 35.7609 54.3801 37.3026 54.3801 43.0674C54.3801 48.9661 49.5805 52.3177 41.2963 52.3177Z" fill="#5FA04E"/>
</g>
<defs>
<clipPath id="clip0_36_516">
<rect width="64.7388" height="73.5668" fill="white" transform="translate(0.659912)"/>
</clipPath>
</defs>
</svg>
