<svg width="35" height="75" viewBox="0 0 35 75" fill="none" xmlns="http://www.w3.org/2000/svg">
<g clip-path="url(#clip0_36_537)">
<path d="M23.7824 9.13752C20.6812 5.47421 18.0107 1.75365 17.4651 0.980918C17.4077 0.923678 17.3215 0.923678 17.2641 0.980918C16.7185 1.75365 14.0479 5.47421 10.9467 9.13752C-15.6723 42.9372 15.1391 65.7472 15.1391 65.7472L15.3976 65.9189C15.6273 69.4392 16.2016 74.5048 16.2016 74.5048H17.3502H18.4988C18.4988 74.5048 19.0731 69.4678 19.3029 65.9189L19.5613 65.7187C19.59 65.7187 50.4014 42.9372 23.7824 9.13752ZM17.3502 65.232C17.3502 65.232 15.9719 64.0586 15.5986 63.4575V63.4005L17.2641 26.5955C17.2641 26.481 17.4364 26.481 17.4364 26.5955L19.1018 63.4005V63.4575C18.7285 64.0586 17.3502 65.232 17.3502 65.232Z" fill="#00684A"/>
</g>
<defs>
<clipPath id="clip0_36_537">
<rect width="34.2171" height="73.5668" fill="white" transform="translate(0.113037 0.937988)"/>
</clipPath>
</defs>
</svg>
