<svg width="18" height="18" viewBox="0 0 18 18" fill="none" xmlns="http://www.w3.org/2000/svg">
<path d="M12.1038 2.00434C13.0472 2.00705 13.9511 2.36913 14.6182 3.01149C15.2852 3.65385 15.6612 4.52429 15.6641 5.43272V12.2887C15.6612 13.1972 15.2852 14.0676 14.6182 14.71C13.9511 15.3523 13.0472 15.7144 12.1038 15.7171H4.98411C4.04074 15.7144 3.13681 15.3523 2.46975 14.71C1.80268 14.0676 1.42668 13.1972 1.42387 12.2887V5.43272C1.42668 4.52429 1.80268 3.65385 2.46975 3.01149C3.13681 2.36913 4.04074 2.00705 4.98411 2.00434H12.1038ZM12.1038 0.633209H4.98411C2.24279 0.633209 0 2.79293 0 5.43272V12.2887C0 14.9285 2.24279 17.0883 4.98411 17.0883H12.1038C14.8451 17.0883 17.0879 14.9285 17.0879 12.2887V5.43272C17.0879 2.79293 14.8451 0.633209 12.1038 0.633209Z" fill="white"/>
<path d="M13.1718 5.43277C12.9606 5.43277 12.7541 5.37245 12.5785 5.25944C12.4028 5.14644 12.2659 4.98582 12.1851 4.79789C12.1043 4.60997 12.0831 4.40319 12.1243 4.20369C12.1655 4.00419 12.2673 3.82094 12.4166 3.67711C12.566 3.53328 12.7563 3.43533 12.9635 3.39565C13.1706 3.35596 13.3854 3.37633 13.5805 3.45417C13.7757 3.53201 13.9425 3.66383 14.0598 3.83296C14.1772 4.00208 14.2398 4.20092 14.2398 4.40433C14.2401 4.53946 14.2127 4.67333 14.1591 4.79824C14.1056 4.92314 14.0269 5.03663 13.9277 5.13219C13.8284 5.22775 13.7106 5.30349 13.5809 5.35507C13.4512 5.40665 13.3121 5.43306 13.1718 5.43277ZM8.54396 6.11815C9.10726 6.11815 9.65791 6.279 10.1263 6.58037C10.5947 6.88173 10.9597 7.31007 11.1753 7.81122C11.3908 8.31237 11.4472 8.86382 11.3373 9.39584C11.2275 9.92786 10.9562 10.4165 10.5579 10.8001C10.1596 11.1837 9.65208 11.4449 9.0996 11.5507C8.54712 11.6565 7.97446 11.6022 7.45403 11.3946C6.93361 11.1871 6.48879 10.8355 6.17584 10.3845C5.86288 9.93348 5.69584 9.40322 5.69584 8.86078C5.69665 8.13363 5.99698 7.43648 6.53093 6.92231C7.06488 6.40813 7.78884 6.11893 8.54396 6.11815ZM8.54396 4.74702C7.69904 4.74702 6.87309 4.98828 6.17057 5.44031C5.46805 5.89234 4.9205 6.53482 4.59716 7.28651C4.27382 8.0382 4.18922 8.86534 4.35406 9.66333C4.51889 10.4613 4.92576 11.1943 5.52321 11.7696C6.12066 12.345 6.88185 12.7368 7.71053 12.8955C8.53922 13.0542 9.39817 12.9728 10.1788 12.6614C10.9594 12.35 11.6266 11.8228 12.096 11.1463C12.5654 10.4698 12.8159 9.6744 12.8159 8.86078C12.8159 7.76974 12.3659 6.72339 11.5647 5.95191C10.7636 5.18043 9.67696 4.74702 8.54396 4.74702Z" fill="white"/>
</svg>
