<svg width="75" height="74" viewBox="0 0 75 74" fill="none" xmlns="http://www.w3.org/2000/svg">
<path d="M0.716583 73.5668V0H74.2834V73.5668H0.716583Z" fill="#FFD600"/>
<path d="M48.817 55.0667C50.2311 57.3636 51.7679 59.5645 55.0232 59.5645C57.7574 59.5645 59.192 58.2056 59.192 56.3255C59.192 54.0756 57.7084 53.2766 54.7003 51.9667L53.0512 51.2637C48.2918 49.2447 45.1264 46.7149 45.1264 41.371C45.1264 36.4462 48.8967 32.6983 54.7882 32.6983C58.9835 32.6983 61.9977 34.1513 64.172 37.9563L59.0346 41.2403C57.9046 39.2213 56.6825 38.4263 54.7882 38.4263C52.855 38.4263 51.631 39.6463 51.631 41.2403C51.631 43.2102 52.8571 44.0072 55.6873 45.2272L57.3365 45.9301C62.9459 48.319 66.1093 50.759 66.1093 56.2438C66.1093 62.1537 61.4419 65.3927 55.1765 65.3927C49.0479 65.3927 45.5678 62.3171 43.6306 58.5101L48.817 55.0667ZM25.1408 55.2343C26.1748 57.0857 27.7463 58.5101 30.0064 58.5101C32.1684 58.5101 33.413 57.6559 33.413 54.3352V32.6963H40.224V55.3814C40.224 62.262 36.233 65.3927 30.4049 65.3927C25.1387 65.3927 21.3378 61.8247 19.7888 58.5101L25.1408 55.2343Z" fill="#000001"/>
</svg>
