<svg width="18" height="18" viewBox="0 0 18 18" fill="none" xmlns="http://www.w3.org/2000/svg">
<path d="M9.16587 0.181152C4.37165 0.181152 0.484344 4.06672 0.484344 8.8588C0.484344 12.4112 2.62372 15.4639 5.68163 16.8081C5.65838 16.2038 5.67775 15.4755 5.83278 14.8169C5.99944 14.1119 6.94898 10.0868 6.94898 10.0868C6.94898 10.0868 6.66993 9.53287 6.66993 8.71546C6.66993 7.42931 7.41406 6.46857 8.34422 6.46857C9.13486 6.46857 9.51468 7.06129 9.51468 7.77022C9.51468 8.56438 9.00696 9.74981 8.74729 10.85C8.53026 11.772 9.2085 12.5197 10.1193 12.5197C11.7626 12.5197 12.871 10.4084 12.871 7.90581C12.871 6.0037 11.5882 4.58196 9.25888 4.58196C6.6273 4.58196 4.98401 6.54605 4.98401 8.73871C4.98401 9.49413 5.2088 10.0287 5.55761 10.4394C5.71651 10.6292 5.73977 10.7067 5.68163 10.9236C5.639 11.0824 5.54598 11.466 5.50335 11.6209C5.44521 11.8417 5.26693 11.9192 5.06927 11.8379C3.85619 11.342 3.29034 10.0171 3.29034 8.52177C3.29034 6.05793 5.37158 3.10211 9.4953 3.10211C12.809 3.10211 14.991 5.50009 14.991 8.07239C14.991 11.4776 13.0958 14.0189 10.3053 14.0189C9.3674 14.0189 8.48762 13.5114 8.18532 12.9381C8.18532 12.9381 7.68148 14.937 7.57296 15.3244C7.39081 15.9946 7.03037 16.6609 6.70093 17.1839C7.50005 17.4196 8.32882 17.5396 9.16199 17.5403C13.9562 17.5403 17.8435 13.6547 17.8435 8.86267C17.8435 4.0706 13.9601 0.181152 9.16587 0.181152Z" fill="white"/>
</svg>
