<svg width="81" height="74" viewBox="0 0 81 74" fill="none" xmlns="http://www.w3.org/2000/svg">
<g clip-path="url(#clip0_36_498)">
<path d="M40.4812 44.5682C44.7025 44.5682 48.1245 41.0828 48.1245 36.7834C48.1245 32.4839 44.7025 28.9985 40.4812 28.9985C36.2599 28.9985 32.8379 32.4839 32.8379 36.7834C32.8379 41.0828 36.2599 44.5682 40.4812 44.5682Z" fill="#087EA4"/>
<path d="M40.4812 54.2989C61.5876 54.2989 78.6977 46.4568 78.6977 36.783C78.6977 27.1092 61.5876 19.2671 40.4812 19.2671C19.3748 19.2671 2.26469 27.1092 2.26469 36.783C2.26469 46.4568 19.3748 54.2989 40.4812 54.2989Z" stroke="#087EA4" stroke-width="3.44844"/>
<path d="M25.5878 45.5412C36.141 64.1584 51.3641 75.3295 59.5895 70.4926C67.8149 65.6557 65.9278 46.6425 55.3746 28.0253C44.8214 9.40812 29.5984 -1.76301 21.3729 3.07387C13.1475 7.91076 15.0346 26.924 25.5878 45.5412Z" stroke="#087EA4" stroke-width="3.44844"/>
<path d="M25.5878 28.0255C15.0346 46.6427 13.1475 65.656 21.373 70.4928C29.5984 75.3297 44.8214 64.1586 55.3746 45.5414C65.9278 26.9242 67.8149 7.91096 59.5895 3.07408C51.3641 -1.76281 36.141 9.40833 25.5878 28.0255Z" stroke="#087EA4" stroke-width="3.44844"/>
</g>
<defs>
<clipPath id="clip0_36_498">
<rect width="80.2547" height="73.5668" fill="white" transform="translate(0.353882)"/>
</clipPath>
</defs>
</svg>
