<svg width="19" height="16" viewBox="0 0 19 16" fill="none" xmlns="http://www.w3.org/2000/svg">
<path d="M18.4843 2.27282C17.7976 2.57123 17.0709 2.76783 16.3274 2.85641C17.1088 2.39884 17.6964 1.67191 17.9801 0.811957C17.2413 1.24396 16.4344 1.54707 15.5939 1.70831C15.24 1.33738 14.8143 1.0423 14.3428 0.841001C13.8713 0.639699 13.3637 0.536382 12.851 0.537329C10.7753 0.537329 9.09551 2.19272 9.09551 4.23336C9.09404 4.5172 9.12657 4.8002 9.1924 5.07631C7.70395 5.00653 6.24645 4.62683 4.91316 3.9615C3.57986 3.29616 2.40013 2.35985 1.44943 1.21246C1.1159 1.77472 0.93951 2.41626 0.938696 3.07C0.938696 4.3516 1.60734 5.48444 2.61698 6.14812C2.01879 6.13392 1.43287 5.9756 0.908945 5.68659V5.73236C0.908945 7.52507 2.2058 9.01645 3.92222 9.35592C3.59945 9.44196 3.26684 9.48556 2.9328 9.48561C2.69577 9.48602 2.45928 9.46302 2.22678 9.41695C2.70394 10.8854 4.09272 11.9534 5.73781 11.984C4.40105 13.0142 2.75986 13.571 1.0722 13.5669C0.77263 13.5664 0.473342 13.5486 0.175842 13.5135C1.89271 14.6098 3.88844 15.1897 5.92547 15.1841C12.843 15.1841 16.6222 9.55045 16.6222 4.66437C16.6222 4.50417 16.618 4.34397 16.6104 4.18759C17.3439 3.66582 17.9785 3.01741 18.4843 2.27282Z" fill="white"/>
</svg>
