<svg width="74" height="74" viewBox="0 0 74 74" fill="none" xmlns="http://www.w3.org/2000/svg">
<g clip-path="url(#clip0_36_493)">
<path d="M70.5119 0H3.84197C1.93745 0 0.393524 1.54392 0.393524 3.44844V70.1184C0.393524 72.0229 1.93745 73.5668 3.84197 73.5668H70.5119C72.4164 73.5668 73.9603 72.0229 73.9603 70.1184V3.44844C73.9603 1.54392 72.4164 0 70.5119 0Z" fill="#3178C6"/>
<path fill-rule="evenodd" clip-rule="evenodd" d="M43.075 57.1685V65.2298C44.3811 65.9011 45.9256 66.4052 47.7089 66.7408C49.4921 67.077 51.3716 67.2449 53.3474 67.2449C55.2729 67.2449 57.1022 67.0604 58.8349 66.6908C60.5683 66.3213 62.0873 65.7126 63.3937 64.8643C64.6995 64.016 65.7335 62.9079 66.4956 61.5388C67.2571 60.1704 67.6382 58.4783 67.6382 56.4631C67.6382 55.0021 67.4204 53.7216 66.9853 52.6215C66.5496 51.5215 65.922 50.5433 65.1013 49.6868C64.2811 48.8303 63.2972 48.062 62.1506 47.3818C61.0034 46.7017 59.7102 46.0593 58.2699 45.4547C57.2152 45.0181 56.2691 44.594 55.432 44.1826C54.5947 43.7711 53.8832 43.3513 53.2971 42.923C52.7111 42.4947 52.259 42.0413 51.9409 41.5627C51.6228 41.0841 51.4637 40.5425 51.4637 39.9379C51.4637 39.3837 51.606 38.8841 51.8906 38.439C52.1753 37.994 52.5772 37.6119 53.0962 37.2928C53.6153 36.9738 54.2515 36.7261 55.005 36.5497C55.7585 36.3734 56.5956 36.2852 57.5165 36.2852C58.1866 36.2852 58.8935 36.3356 59.639 36.4363C60.3838 36.5371 61.1333 36.6925 61.8868 36.9024C62.6402 37.1123 63.3725 37.3768 64.0846 37.6959C64.7961 38.015 65.453 38.3844 66.0559 38.8043V31.2722C64.8335 30.802 63.4983 30.4535 62.05 30.2268C60.6016 30.0001 58.9401 29.8867 57.0645 29.8867C55.1557 29.8867 53.3474 30.0924 51.6395 30.5039C49.9316 30.9153 48.4289 31.5577 47.1312 32.431C45.8336 33.3043 44.808 34.4169 44.0546 35.7688C43.3011 37.1207 42.9243 38.7371 42.9243 40.618C42.9243 43.0196 43.615 45.0684 44.9964 46.7646C46.3778 48.4608 48.4749 49.8967 51.2879 51.0723C52.393 51.5257 53.4227 51.9708 54.3771 52.4074C55.3315 52.844 56.1561 53.2975 56.851 53.7677C57.5459 54.238 58.094 54.7502 58.4958 55.3043C58.8981 55.8586 59.0987 56.4883 59.0987 57.1937C59.0987 57.7145 58.9734 58.1973 58.7222 58.6421C58.4711 59.087 58.09 59.4732 57.5794 59.8008C57.0686 60.1284 56.4324 60.3848 55.6705 60.5693C54.9087 60.7537 54.0171 60.8463 52.9958 60.8463C51.2543 60.8463 49.5298 60.5399 47.8219 59.9267C46.114 59.314 44.5318 58.3944 43.075 57.1685ZM29.5344 37.1022H40.0506V30.4615H10.7389V37.1022H21.2037V66.6701H29.5344V37.1022Z" fill="white"/>
</g>
<defs>
<clipPath id="clip0_36_493">
<rect width="73.5668" height="73.5668" fill="white" transform="translate(0.393524)"/>
</clipPath>
</defs>
</svg>
